<?xml version="1.0" encoding="UTF-8" standalone="no"?>
<!DOCTYPE svg PUBLIC "-//W3C//DTD SVG 1.1//EN" "http://www.w3.org/Graphics/SVG/1.1/DTD/svg11.dtd">
<svg width="100%" height="100%" viewBox="0 0 1024 1024" version="1.1" xmlns="http://www.w3.org/2000/svg" xmlns:xlink="http://www.w3.org/1999/xlink" xml:space="preserve" xmlns:serif="http://www.serif.com/" style="fill-rule:evenodd;clip-rule:evenodd;stroke-linejoin:round;stroke-miterlimit:2;">
    <g transform="matrix(0.860514,0,0,0.921835,188.94,179.108)">
        <g id="Template---Icons---App">
            <g>
                <g>
                    <g>
                        <path d="M345.544,44.215L122.383,370.715C113.31,383.989 122.816,402 138.895,402L265.319,402C279.094,402 288.745,415.599 284.199,428.601L193.502,688L189.184,700.474C189.063,700.824 188.924,701.167 188.774,701.507C188.247,702.7 186.953,705.757 186.502,708C186.153,709.733 185.968,710.732 186.002,712.5C186.031,714.027 186.509,716.11 186.794,717.223C186.926,717.743 187.112,718.245 187.351,718.725C187.881,719.793 188.94,721.79 190.002,723C191.19,724.353 192.001,725.007 193.502,726C194.437,726.619 198.714,729.133 203.002,729C208.502,729 210.002,727.5 210.002,727.5C201.602,717.5 209.002,707 216.502,697L247.002,662L548.868,350.958C560.211,339.271 553.576,319.652 537.468,317.248L473.537,307.707C458.946,305.53 451.609,288.909 459.915,276.718C497.621,221.379 583.929,94.61 611.001,54.001C618.84,42.241 628.001,49.501 628.001,49.501C628.001,49.501 628.317,48.328 626.001,44.501C623.408,40.216 618.417,36.653 614.501,36.001C611.509,35.502 605.224,35.501 605.189,35.501L568.877,35.501L496.251,35.501L362.055,35.501C355.45,35.501 349.271,38.762 345.544,44.215Z" style="fill:url(#_Radial1);fill-rule:nonzero;"/>
                    </g>
                </g>
            </g>
        </g>
    </g>
    <defs>
        <radialGradient id="_Radial1" cx="0" cy="0" r="1" gradientUnits="userSpaceOnUse" gradientTransform="matrix(-238.979,606.249,-436.767,-172.17,463.177,-73.2017)"><stop offset="0" style="stop-color:rgb(37,111,58);stop-opacity:1"/><stop offset="1" style="stop-color:rgb(54,164,29);stop-opacity:1"/></radialGradient>
    </defs>
</svg>
