<?xml version="1.0" encoding="UTF-8" standalone="no"?>
<!DOCTYPE svg PUBLIC "-//W3C//DTD SVG 1.1//EN" "http://www.w3.org/Graphics/SVG/1.1/DTD/svg11.dtd">
<svg width="100%" height="100%" viewBox="0 0 1024 1024" version="1.1" xmlns="http://www.w3.org/2000/svg" xmlns:xlink="http://www.w3.org/1999/xlink" xml:space="preserve" xmlns:serif="http://www.serif.com/" style="fill-rule:evenodd;clip-rule:evenodd;stroke-linejoin:round;stroke-miterlimit:2;">
    <g transform="matrix(0.860514,0,0,0.921835,188.94,179.108)">
        <g id="Template---Icons---App">
            <g>
                <g>
                    <g>
                        <path d="M345.544,44.21L122.387,370.71C113.315,383.985 122.821,401.996 138.899,401.996L265.501,401.996L266.997,402.169C279.69,403.635 287.886,416.326 284.001,428.499L189.002,700.998C189.002,700.998 187.072,705.151 186.502,707.998C185.801,711.498 186.002,712.998 186.002,712.998L186.268,715.128C186.423,716.365 186.787,717.568 187.345,718.683L188.002,719.998C188.002,719.998 188.285,720.619 188.502,720.998C188.944,721.771 189.298,722.182 189.84,722.81L190.002,722.998C190.722,723.835 191.156,724.287 192.002,724.998C194.832,727.375 197.502,727.998 197.502,727.998C197.502,727.998 195.296,725.058 194.002,721.498C193.042,718.857 191.758,716 192.002,712C192.314,706.884 194.547,700.36 199,694.5C282.544,584.553 413.298,429.881 464.949,369.28C474.847,357.668 468.616,339.724 453.67,336.654L407.506,327.175C392.751,324.145 386.514,306.507 396.086,294.875L490.001,180.748L550.251,108.122L580.376,71.809L595.145,54.006C595.341,53.77 595.525,53.529 595.705,53.282C596.883,51.668 601.775,45.237 606.5,42.999C615.999,38.5 625.999,44.5 625.999,44.5C625.999,44.5 623,39 618.5,37C615.244,35.553 610.501,35.496 610.501,35.496L362.056,35.496C355.45,35.496 349.271,38.757 345.544,44.21Z" style="fill:url(#_Radial1);fill-rule:nonzero;"/>
                    </g>
                </g>
            </g>
        </g>
    </g>
    <defs>
        <radialGradient id="_Radial1" cx="0" cy="0" r="1" gradientUnits="userSpaceOnUse" gradientTransform="matrix(-232.966,877.955,-982.373,-260.673,378.1,57.4328)"><stop offset="0" style="stop-color:rgb(151,221,64);stop-opacity:1"/><stop offset="1" style="stop-color:rgb(54,164,29);stop-opacity:1"/></radialGradient>
    </defs>
</svg>
